HIERARCHY
ROOT Hips
{
  OFFSET 0.0502701 92.146 0
  CHANNELS 6 Xposition Yposition Zposition Zrotation Xrotation Yrotation
  JOINT Bip01_Pelvis
  {
    OFFSET 0 0 0
    CHANNELS 6 Xposition Yposition Zposition Zrotation Xrotation Yrotation
    JOINT BN_Tai_01
    {
      OFFSET -4.6544 -2.06234 0
      CHANNELS 6 Xposition Yposition Zposition Zrotation Xrotation Yrotation
      JOINT BN_Tai_R_01
      {
        OFFSET 10.2279 -0.119812 3.68897
        CHANNELS 6 Xposition Yposition Zposition Zrotation Xrotation Yrotation
        JOINT BN_Tai_R_02
        {
          OFFSET 15.0421 0 1.52588e-005
          CHANNELS 6 Xposition Yposition Zposition Zrotation Xrotation Yrotation
          End Site
          {
            OFFSET 0 0 0
          }
        }
      }
      JOINT BN_Tai_L_01
      {
        OFFSET 10.2279 -0.119797 -3.68907
        CHANNELS 6 Xposition Yposition Zposition Zrotation Xrotation Yrotation
        JOINT BN_Tai_L_02
        {
          OFFSET 15.0421 0 0
          CHANNELS 6 Xposition Yposition Zposition Zrotation Xrotation Yrotation
          End Site
          {
            OFFSET 0 0 0
          }
        }
      }
    }
    JOINT Bip01_Spine
    {
      OFFSET 2.7319 1.49192 0
      CHANNELS 6 Xposition Yposition Zposition Zrotation Xrotation Yrotation
      JOINT Bip01_R_Thigh
      {
        OFFSET -2.85206 -1.24717 -6.20578
        CHANNELS 6 Xposition Yposition Zposition Zrotation Xrotation Yrotation
        JOINT Bip01_R_Calf
        {
          OFFSET 6.73247 0 0
          CHANNELS 6 Xposition Yposition Zposition Zrotation Xrotation Yrotation
          JOINT Bip01_R_HorseLink
          {
            OFFSET 8.08523 0 0
            CHANNELS 6 Xposition Yposition Zposition Zrotation Xrotation Yrotation
            JOINT Bip01_R_Foot
            {
              OFFSET 8.97518 0 0
              CHANNELS 6 Xposition Yposition Zposition Zrotation Xrotation Yrotation
              JOINT BN_Toe_R_30
              {
                OFFSET 1.58762 -0.234982 -0.295153
                CHANNELS 6 Xposition Yposition Zposition Zrotation Xrotation Yrotation
                JOINT BN_Toe_R_31
                {
                  OFFSET 3.03849 0 0
                  CHANNELS 6 Xposition Yposition Zposition Zrotation Xrotation Yrotation
                  End Site
                  {
                    OFFSET 0 0 0
                  }
                }
              }
              JOINT BN_Toe_R_00
              {
                OFFSET 1.65463 0.933666 1.02414
                CHANNELS 6 Xposition Yposition Zposition Zrotation Xrotation Yrotation
                JOINT BN_Toe_R_01
                {
                  OFFSET 3.51775 0 0
                  CHANNELS 6 Xposition Yposition Zposition Zrotation Xrotation Yrotation
                  End Site
                  {
                    OFFSET 0 0 0
                  }
                }
              }
              JOINT BN_Toe_R_20
              {
                OFFSET 1.47309 1.0106 -1.16708
                CHANNELS 6 Xposition Yposition Zposition Zrotation Xrotation Yrotation
                JOINT BN_Toe_R_21
                {
                  OFFSET 3.94896 0 0
                  CHANNELS 6 Xposition Yposition Zposition Zrotation Xrotation Yrotation
                  End Site
                  {
                    OFFSET 0 0 0
                  }
                }
              }
              JOINT BN_Toe_R_10
              {
                OFFSET 1.07522 1.64225 0.0223596
                CHANNELS 6 Xposition Yposition Zposition Zrotation Xrotation Yrotation
                JOINT BN_Toe_R_11
                {
                  OFFSET 4.09655 0 0
                  CHANNELS 6 Xposition Yposition Zposition Zrotation Xrotation Yrotation
                  End Site
                  {
                    OFFSET 0 0 0
                  }
                }
              }
              JOINT Bip01_R_Toe0
              {
                OFFSET 2.04238 1.88275 0
                CHANNELS 6 Xposition Yposition Zposition Zrotation Xrotation Yrotation
                End Site
                {
                  OFFSET 0 0 0
                }
              }
            }
          }
        }
      }
      JOINT Bip01_L_Thigh
      {
        OFFSET -2.85154 -1.24849 6.20577
        CHANNELS 6 Xposition Yposition Zposition Zrotation Xrotation Yrotation
        JOINT Bip01_L_Calf
        {
          OFFSET 6.73247 0 0
          CHANNELS 6 Xposition Yposition Zposition Zrotation Xrotation Yrotation
          JOINT Bip01_L_HorseLink
          {
            OFFSET 8.08524 0 0
            CHANNELS 6 Xposition Yposition Zposition Zrotation Xrotation Yrotation
            JOINT Bip01_L_Foot
            {
              OFFSET 8.97521 0 0
              CHANNELS 6 Xposition Yposition Zposition Zrotation Xrotation Yrotation
              JOINT BN_Toe_L_00
              {
                OFFSET 1.65461 0.933701 -1.02419
                CHANNELS 6 Xposition Yposition Zposition Zrotation Xrotation Yrotation
                JOINT BN_Toe_L_01
                {
                  OFFSET 3.51778 0 0
                  CHANNELS 6 Xposition Yposition Zposition Zrotation Xrotation Yrotation
                  End Site
                  {
                    OFFSET 0 0 0
                  }
                }
              }
              JOINT BN_Toe_L_10
              {
                OFFSET 1.07523 1.6422 -0.0221281
                CHANNELS 6 Xposition Yposition Zposition Zrotation Xrotation Yrotation
                JOINT BN_Toe_L_11
                {
                  OFFSET 4.09657 0 0
                  CHANNELS 6 Xposition Yposition Zposition Zrotation Xrotation Yrotation
                  End Site
                  {
                    OFFSET 0 0 0
                  }
                }
              }
              JOINT BN_Toe_L_30
              {
                OFFSET 1.58761 -0.234954 0.295135
                CHANNELS 6 Xposition Yposition Zposition Zrotation Xrotation Yrotation
                JOINT BN_Toe_L_31
                {
                  OFFSET 3.03847 0 0
                  CHANNELS 6 Xposition Yposition Zposition Zrotation Xrotation Yrotation
                  End Site
                  {
                    OFFSET 0 0 0
                  }
                }
              }
              JOINT BN_Toe_L_20
              {
                OFFSET 1.4731 1.01055 1.1673
                CHANNELS 6 Xposition Yposition Zposition Zrotation Xrotation Yrotation
                JOINT BN_Toe_L_21
                {
                  OFFSET 3.94897 0 0
                  CHANNELS 6 Xposition Yposition Zposition Zrotation Xrotation Yrotation
                  End Site
                  {
                    OFFSET 0 0 0
                  }
                }
              }
              JOINT Bip01_L_Toe0
              {
                OFFSET 2.04238 1.88276 0
                CHANNELS 6 Xposition Yposition Zposition Zrotation Xrotation Yrotation
                End Site
                {
                  OFFSET 0 0 0
                }
              }
            }
          }
        }
      }
      JOINT Bip01_Spine1
      {
        OFFSET 8.6167 -0.00679016 0
        CHANNELS 6 Xposition Yposition Zposition Zrotation Xrotation Yrotation
        JOINT BN_Wing_R_01
        {
          OFFSET 0.267445 -6.12421 -7.49305
          CHANNELS 6 Xposition Yposition Zposition Zrotation Xrotation Yrotation
          JOINT BN_Wing_R_02
          {
            OFFSET 14.7158 0 0
            CHANNELS 6 Xposition Yposition Zposition Zrotation Xrotation Yrotation
            JOINT BN_Wing_R_03
            {
              OFFSET 19.0858 0 0
              CHANNELS 6 Xposition Yposition Zposition Zrotation Xrotation Yrotation
              JOINT BN_Wing_R_05
              {
                OFFSET 2.68908 -0.270637 0.785261
                CHANNELS 6 Xposition Yposition Zposition Zrotation Xrotation Yrotation
                JOINT BN_Wing_R_06
                {
                  OFFSET 21.1083 0 0
                  CHANNELS 6 Xposition Yposition Zposition Zrotation Xrotation Yrotation
                  End Site
                  {
                    OFFSET 0 0 0
                  }
                }
              }
              JOINT BN_Wing_R_04
              {
                OFFSET 27.642 0 0
                CHANNELS 6 Xposition Yposition Zposition Zrotation Xrotation Yrotation
                End Site
                {
                  OFFSET 0 0 0
                }
              }
            }
          }
        }
        JOINT BN_Wing_L_01
        {
          OFFSET 0.267452 -6.12421 7.49305
          CHANNELS 6 Xposition Yposition Zposition Zrotation Xrotation Yrotation
          JOINT BN_Wing_L_02
          {
            OFFSET 14.7158 0 0
            CHANNELS 6 Xposition Yposition Zposition Zrotation Xrotation Yrotation
            JOINT BN_Wing_L_03
            {
              OFFSET 19.0858 0 0
              CHANNELS 6 Xposition Yposition Zposition Zrotation Xrotation Yrotation
              JOINT BN_Wing_L_05
              {
                OFFSET 2.68908 -0.270635 -0.785254
                CHANNELS 6 Xposition Yposition Zposition Zrotation Xrotation Yrotation
                JOINT BN_Wing_L_06
                {
                  OFFSET 21.1083 0 0
                  CHANNELS 6 Xposition Yposition Zposition Zrotation Xrotation Yrotation
                  End Site
                  {
                    OFFSET 0 0 0
                  }
                }
              }
              JOINT BN_Wing_L_04
              {
                OFFSET 27.642 0 1.14441e-005
                CHANNELS 6 Xposition Yposition Zposition Zrotation Xrotation Yrotation
                End Site
                {
                  OFFSET 0 0 0
                }
              }
            }
          }
        }
        JOINT Bip01_Neck
        {
          OFFSET 7.59958 -1.43237 0
          CHANNELS 6 Xposition Yposition Zposition Zrotation Xrotation Yrotation
          JOINT Bip01_Neck1
          {
            OFFSET 3.64749 -0.00262451 0
            CHANNELS 6 Xposition Yposition Zposition Zrotation Xrotation Yrotation
            JOINT Bip01_Neck2
            {
              OFFSET 3.32331 -0.00284576 0
              CHANNELS 6 Xposition Yposition Zposition Zrotation Xrotation Yrotation
              JOINT Bip01_Head
              {
                OFFSET 4.63256 -0.573471 0
                CHANNELS 6 Xposition Yposition Zposition Zrotation Xrotation Yrotation
                JOINT BN_Jaw
                {
                  OFFSET 1.05386 2.23561 0
                  CHANNELS 6 Xposition Yposition Zposition Zrotation Xrotation Yrotation
                  End Site
                  {
                    OFFSET 0 0 0
                  }
                }
              }
            }
          }
        }
      }
    }
  }
}
MOTION
Frames:	4
Frame Time:	0.0333333
0.0502691 87.351 0 100.852 -90 -173.882 0 0 0 -89.9984 23.7027 -89.9984 -4.6544 -2.06234 -2.32831e-010 -10.829 0.799279 177.536 10.2279 -0.119812 3.68897 38.5573 80.7181 -45.4089 15.0421 -2.90573e-007 1.52588e-005 4.22892 -4.97984 -19.8562 10.2279 -0.119797 -3.68907 -133.041 77.8068 126.345 15.0421 -8.34465e-007 0 -4.66664 4.99982 -14.8373 2.80367 1.35405 -2.32831e-010 1.20656 -3.64295e-007 -1.72989e-005 -2.83194 -1.29398 -6.20578 -150.438 -26.7341 -174.643 6.73247 -7.6294e-006 3.8147e-006 -134.421 4.04587e-006 -1.9209e-005 8.08523 0 0 148.632 4.22256e-007 8.51194e-007 8.97518 7.6294e-006 -7.10543e-015 -86.3161 -3.78946 -26.9691 1.58762 -0.234982 -0.295153 159.904 -6.39197 179.674 3.03849 2.38419e-006 0 -24.9245 -3.01223e-007 6.32177e-009 1.65463 0.933666 1.02414 24.6842 37.8461 -26.2508 3.51775 -7.10543e-015 -1.77636e-015 -28.8548 -2.22438e-005 1.691e-006 1.47309 1.0106 -1.16708 41.0796 -60.4863 26.9974 3.94896 7.10543e-015 3.8147e-006 -24.1264 -1.95209e-005 -1.64527e-006 1.07522 1.64225 0.0223596 18.5295 -4.35662 -4.5281 4.09655 -7.6294e-006 -9.53674e-007 -16.2674 9.53675e-006 2.78088e-006 2.04238 1.88275 0 106.363 -17.7037 45.4713 -2.83194 -1.29401 6.20577 -142.599 19.1832 172.925 6.73247 0 5.72205e-006 -123.803 -1.88723e-006 4.22804e-007 8.08524 7.62939e-006 -1.90735e-006 148.349 -9.77447e-006 -6.20582e-006 8.97521 7.62939e-006 3.8147e-006 -109.855 -5.42627 14.7559 1.65461 0.933701 -1.02419 46.2329 -43.81 25.9295 3.51778 -7.10542e-015 9.53674e-007 -17.919 -1.44992e-005 -2.11528e-006 1.07523 1.6422 -0.0221281 30.6714 5.20903 3.51223 4.09657 3.81469e-006 -8.88178e-016 -13.534 1.35268e-005 -1.4568e-005 1.58761 -0.234954 0.295135 -171.661 5.79564 177.253 3.03847 1.77636e-015 1.78814e-007 -23.0118 8.63982e-006 3.78255e-006 1.4731 1.01055 1.1673 23.1595 52.7971 -12.2969 3.94897 3.8147e-006 -9.53674e-007 -12.0173 2.22962e-006 -1.04481e-006 2.04238 1.88276 2.38419e-007 106.363 17.7037 -45.4713 8.6167 -0.00679016 0 -8.37267 1.24307e-005 -1.56597e-005 0.267445 -6.12421 -7.49305 -71.1899 0.690129 48.3847 14.7158 0 7.10543e-015 51.2086 0.932883 8.32597 19.0859 3.8147e-006 7.6294e-006 -32.6806 14.7008 -22.8147 2.68908 -0.270637 0.785261 -43.932 3.2308 -0.296057 21.1083 7.62939e-006 -1.90735e-006 -2.17301 0.0018173 -23.8733 27.642 7.10542e-015 -7.62939e-006 12.0007 -3.33927 -30.3863 0.267452 -6.12421 7.49305 -71.19 -0.690134 -48.3847 14.7158 0 3.8147e-006 51.2086 -0.932886 -8.32597 19.0858 7.62939e-006 1.42109e-014 -32.6806 -14.7008 22.8147 2.68908 -0.270635 -0.785253 -43.932 -3.2308 0.29606 21.1083 -7.62939e-006 7.10543e-015 -2.17302 -0.00182122 23.8733 27.642 1.90735e-006 1.14441e-005 12.0007 3.33926 30.3863 7.59958 -1.43237 -2.32831e-010 7.24395 1.26324e-006 9.93808e-006 3.64749 -0.00262451 4.65661e-010 -7.85379 9.92387e-006 1.36886e-006 3.32331 -0.00284576 2.32831e-010 -4.67001 -5.19372e-011 -4.24239e-012 4.63256 -0.573471 0 -13.6326 7.37453e-006 1.20967e-005 1.05386 2.23561 0 -100.309 -0.029541 -179.975 
0.0502692 87.5103 -5.43653e-009 101.016 -90 -173.377 0 0 0 -89.9984 24.1059 -89.9984 -4.6544 -2.06234 -2.32831e-010 -10.858 0.800514 177.537 10.2279 -0.119812 3.68897 38.4777 80.7094 -45.2221 15.0421 -2.90573e-007 1.52588e-005 4.13753 -4.90776 -21.9801 10.2279 -0.119797 -3.68907 -133.092 77.8017 126.499 15.0421 -8.34465e-007 0 -4.56362 4.95331 -17.0925 2.79286 1.37481 -2.3279e-010 1.46936 -4.43635e-007 -1.7297e-005 -2.82744 -1.30215 -6.20578 -149.785 -26.5367 -174.494 6.73247 -7.6294e-006 3.8147e-006 -133.363 3.69057e-006 -1.92804e-005 8.08523 -2.84217e-014 -7.10543e-015 148.894 9.5643e-007 -2.96027e-008 8.97518 7.6294e-006 -7.10543e-015 -86.6898 -4.05277 -26.767 1.58762 -0.234982 -0.295153 160.231 -6.39466 179.71 3.03849 2.38419e-006 -3.55271e-015 -25.1339 -3.09123e-007 5.75664e-009 1.65463 0.933666 1.02414 24.318 37.9879 -26.0254 3.51775 -1.42109e-014 1.77636e-015 -29.1539 -2.22597e-005 1.61317e-006 1.47309 1.0106 -1.16708 40.5027 -60.6295 26.4947 3.94896 0 3.8147e-006 -24.4254 -1.57817e-005 -1.00794e-005 1.07522 1.64225 0.0223596 18.2214 -4.33279 -4.55309 4.09655 -7.6294e-006 -9.53674e-007 -16.5663 9.52233e-006 2.83084e-006 2.04238 1.88275 -2.4869e-014 106.415 -17.9294 45.3762 -2.82743 -1.30219 6.20577 -143.212 19.2448 173.126 6.73247 4.26326e-014 5.72205e-006 -123.613 -1.02496e-005 -5.1209e-006 8.08524 7.62939e-006 -1.90735e-006 147.448 -9.87468e-006 -6.09953e-006 8.97521 7.62939e-006 3.8147e-006 -109.881 -5.48402 14.7345 1.65461 0.933701 -1.02419 46.0298 -43.881 25.7887 3.51778 0 9.53674e-007 -18.0152 -1.4776e-005 -1.24399e-006 1.07523 1.6422 -0.0221281 30.5098 5.19914 3.52689 4.09657 3.81469e-006 -8.88178e-016 -13.6249 1.35508e-005 -1.45457e-005 1.58761 -0.234954 0.295135 -171.499 5.78493 177.236 3.03847 -8.88178e-015 1.78814e-007 -23.1855 4.67732e-006 1.30198e-005 1.4731 1.01055 1.1673 22.8996 52.831 -12.0898 3.94897 3.8147e-006 -9.53674e-007 -12.1058 2.17974e-006 -7.12569e-007 2.04238 1.88276 2.38896e-007 106.534 17.742 -45.4539 8.6167 -0.00679016 4.33681e-019 -8.41805 1.24431e-005 -1.56499e-005 0.267445 -6.12421 -7.49305 -72.0128 0.588348 56.3136 14.7158 1.42109e-014 0 51.2086 0.932879 8.32598 19.0858 3.8147e-006 7.6294e-006 -31.176 14.2629 -23.5135 2.68908 -0.270637 0.785261 -43.9361 3.24948 -1.66751 21.1083 7.62939e-006 -1.90735e-006 -2.17444 0.00188833 -25.9481 27.642 -1.27898e-013 -7.62939e-006 11.1712 -2.75273 -33.8092 0.267452 -6.12421 7.49305 -72.0072 -0.582787 -56.3321 14.7158 -1.42109e-014 3.8147e-006 51.2086 -0.932886 -8.32597 19.0858 7.62939e-006 1.42109e-014 -31.176 -14.2629 23.5135 2.68908 -0.270635 -0.785253 -43.9362 -3.24948 1.6675 21.1083 -7.62939e-006 3.55271e-015 -2.17444 -0.00189026 25.9481 27.642 1.90735e-006 1.14441e-005 11.1712 2.75272 33.8092 7.59958 -1.43237 -2.32831e-010 7.09265 1.23699e-006 9.94138e-006 3.64749 -0.00262451 4.65661e-010 -7.96311 9.92124e-006 1.3878e-006 3.32331 -0.00284576 2.32831e-010 -3.54655 -5.19976e-011 -3.22497e-012 4.63256 -0.573471 2.22912e-016 -13.9085 7.3162e-006 1.21321e-005 1.05386 2.23561 -6.1149e-017 -100.309 -0.029541 -179.975 
0.0502692 87.9284 -1.97052e-008 100.658 -90 -173.395 0 0 0 -89.9984 24.5213 -89.9985 -4.6544 -2.06234 -2.32831e-010 -10.9486 0.804417 177.538 10.2279 -0.119812 3.68897 38.2357 80.6864 -44.6874 15.0421 -2.90573e-007 1.52588e-005 4.05059 -4.83381 -24.0624 10.2279 -0.119797 -3.68907 -133.216 77.7858 126.913 15.0421 -8.34465e-007 -5.68434e-014 -4.46445 4.90378 -19.3036 2.78226 1.39518 -2.32749e-010 1.87458 -5.65956e-007 -1.72935e-005 -2.82684 -1.30293 -6.20578 -149.141 -26.3031 -174.342 6.73247 -7.6294e-006 3.8147e-006 -132.076 3.25662e-006 -1.93584e-005 8.08523 -1.42109e-014 -7.10543e-015 149.101 6.06147e-007 5.52056e-007 8.97518 7.6294e-006 0 -86.9178 -4.4473 -26.5044 1.58762 -0.234982 -0.295153 160.552 -6.39708 179.746 3.03849 2.38419e-006 -3.55271e-015 -25.3392 -3.1693e-007 5.12874e-009 1.65463 0.933666 1.02414 23.9575 38.1259 -25.8028 3.51775 -3.55271e-014 3.55271e-015 -29.4471 -2.2272e-005 1.53902e-006 1.47309 1.0106 -1.16708 39.9319 -60.7675 25.9966 3.94896 0 3.8147e-006 -24.7186 -1.95877e-005 -1.8917e-006 1.07522 1.64225 0.0223596 17.9193 -4.30929 -4.57751 4.09655 -7.6294e-006 -9.53674e-007 -16.8594 9.50742e-006 2.87982e-006 2.04238 1.88275 -5.14255e-013 106.466 -18.1508 45.2831 -2.82684 -1.30296 6.20577 -144.34 19.2903 173.419 6.73247 0 5.72205e-006 -123.907 -1.02421e-005 -5.16669e-006 8.08524 7.62939e-006 -1.90735e-006 145.937 -9.61338e-006 -6.59186e-006 8.97521 7.62939e-006 3.8147e-006 -109.35 -5.63654 14.6351 1.65461 0.933701 -1.02419 45.8302 -43.9503 25.6503 3.51778 0 9.53674e-007 -18.1095 -1.75018e-005 7.1047e-006 1.07523 1.6422 -0.0221281 30.3513 5.18939 3.54124 4.09657 3.81469e-006 8.88178e-016 -13.7141 1.35742e-005 -1.45241e-005 1.58761 -0.234954 0.295135 -171.339 5.7744 177.219 3.03847 0 1.78814e-007 -23.3557 4.63756e-006 1.30371e-005 1.4731 1.01055 1.1673 22.6443 52.8638 -11.8864 3.94897 3.8147e-006 -9.53674e-007 -12.1925 1.64017e-007 8.7422e-006 2.04238 1.88276 2.3972e-007 106.702 17.7796 -45.437 8.6167 -0.00679016 4.33681e-019 -8.39721 1.24374e-005 -1.56544e-005 0.267445 -6.12421 -7.49305 -72.8709 0.212848 65.6824 14.7158 1.42109e-014 1.42109e-014 51.2086 0.932872 8.32599 19.0858 3.8147e-006 7.6294e-006 -29.8206 13.2834 -24.0003 2.68908 -0.270637 0.785261 -43.9361 3.25876 -3.38297 21.1083 7.62939e-006 -1.90735e-006 -2.17424 0.00243993 -27.106 27.642 -2.98428e-013 -7.62939e-006 9.52887 -1.54163 -36.2457 0.267452 -6.12421 7.49305 -72.8564 -0.20003 -65.7125 14.7158 -2.13163e-014 3.8147e-006 51.2086 -0.932888 -8.32597 19.0858 7.62939e-006 0 -29.8201 -13.2867 23.9995 2.68908 -0.270635 -0.785253 -43.9399 -3.25886 3.38285 21.1083 -7.62939e-006 -2.13163e-014 -2.17425 -0.00244573 27.106 27.642 1.90735e-006 1.14441e-005 9.52888 1.54161 36.2457 7.59958 -1.43237 -2.32832e-010 6.67637 1.16473e-006 9.9501e-006 3.64749 -0.00262451 4.65661e-010 -8.02906 9.91964e-006 1.39922e-006 3.32331 -0.00284576 2.32831e-010 -2.1194 -5.20846e-011 -1.93065e-012 4.63256 -0.573471 2.0383e-016 -14.3762 7.21692e-006 1.21914e-005 1.05386 2.23561 -2.66714e-016 -100.309 -0.029541 -179.975 
0.0502694 88.5727 -4.16898e-008 106.712 -90 -166.996 0 0 0 -89.9984 24.9615 -89.9985 -4.6544 -2.06234 -2.32833e-010 -11.0924 0.810593 177.54 10.2279 -0.119812 3.68897 37.8768 80.6432 -43.8565 15.0421 -2.90573e-007 1.52588e-005 3.96559 -4.75601 -26.1649 10.2279 -0.119797 -3.68907 -133.404 77.7673 127.575 15.0421 -8.34465e-007 -1.42109e-014 -4.36634 4.84994 -21.5363 2.77155 1.41574 -2.32707e-010 2.40624 -7.26399e-007 -1.72875e-005 -2.82894 -1.29748 -6.20578 -148.494 -26.034 -174.186 6.73247 -7.6294e-006 3.8147e-006 -130.583 2.75092e-006 -1.94368e-005 8.08523 0 0 149.286 6.92813e-007 4.07208e-007 8.97518 7.6294e-006 -7.10543e-015 -87.0221 -4.96031 -26.184 1.58762 -0.234982 -0.295153 160.876 -6.39932 179.782 3.03849 2.38419e-006 -3.10862e-015 -25.5466 -3.25405e-007 4.42854e-009 1.65463 0.933666 1.02414 23.5922 38.2641 -25.5766 3.51775 -2.13163e-014 3.55271e-015 -29.7432 -1.73732e-005 -7.12479e-006 1.47309 1.0106 -1.16708 39.3505 -60.9044 25.4886 3.94896 1.42109e-014 3.8147e-006 -25.0146 -1.61518e-005 -9.44562e-006 1.07522 1.64225 0.0223596 17.6143 -4.28542 -4.60202 4.09655 -7.6294e-006 -9.53674e-007 -17.1554 9.49164e-006 2.92929e-006 2.04238 1.88275 -6.5592e-013 106.517 -18.3746 45.1891 -2.82894 -1.2975 6.20577 -145.906 19.3003 173.801 6.73247 2.84217e-014 5.72205e-006 -124.58 -1.94908e-006 4.14645e-007 8.08524 7.6294e-006 -1.90735e-006 143.929 -9.59948e-006 -6.72119e-006 8.97521 7.62939e-006 3.8147e-006 -108.367 -5.85886 14.471 1.65461 0.933701 -1.02419 45.6282 -44.02 25.5099 3.51778 -2.13163e-014 9.53674e-007 -18.2048 -1.44825e-005 -2.11609e-006 1.07523 1.6422 -0.0221281 30.1912 5.1795 3.5557 4.09657 3.81469e-006 2.66454e-015 -13.8041 1.36e-005 -1.45011e-005 1.58761 -0.234954 0.295135 -171.178 5.76371 177.202 3.03847 -3.55271e-015 1.78814e-007 -23.5277 8.59695e-006 3.87115e-006 1.4731 1.01055 1.1673 22.3862 52.8963 -11.6805 3.94897 3.8147e-006 -9.53674e-007 -12.2801 2.17887e-006 -4.24655e-007 2.04238 1.88276 2.40828e-007 106.871 17.8176 -45.42 8.6167 -0.00679016 1.30104e-018 -8.32007 1.24163e-005 -1.56711e-005 0.267445 -6.12421 -7.49305 -73.6926 -0.436119 76.2977 14.7158 1.42109e-014 4.26326e-014 51.2086 0.932864 8.32599 19.0858 3.8147e-006 7.6294e-006 -28.6393 11.9181 -24.3236 2.68908 -0.270637 0.785261 -43.9411 3.262 -5.28515 21.1083 7.62939e-006 -1.90735e-006 -2.17403 0.00299518 -28.2754 27.642 -5.25801e-013 -7.62939e-006 7.42629 0.0192059 -37.9401 0.267452 -6.12421 7.49305 -73.6754 0.446653 -76.3298 14.7158 -1.42109e-014 3.8147e-006 51.2086 -0.932891 -8.32597 19.0858 7.62939e-006 -1.42109e-014 -28.6393 -11.9181 24.3236 2.68908 -0.270635 -0.785253 -43.9412 -3.262 5.28514 21.1083 -7.62939e-006 0 -2.17404 -0.00300061 28.2754 27.642 1.90735e-006 1.14441e-005 7.42631 -0.0191986 37.9401 7.59958 -1.43237 -2.32831e-010 6.03539 1.05335e-006 9.96251e-006 3.64749 -0.00262451 4.65661e-010 -8.06061 9.91887e-006 1.40468e-006 3.32331 -0.00284576 2.32831e-010 -0.419658 -5.2119e-011 -3.82847e-013 4.63256 -0.573471 2.86229e-017 -14.8485 7.11618e-006 1.22505e-005 1.05386 2.23561 1.99233e-015 -100.309 -0.0295563 -179.975 
